<?xml version="1.0" encoding="utf-8"?>
<!-- Generator: Adobe Illustrator 25.0.0, SVG Export Plug-In . SVG Version: 6.00 Build 0)  -->
<svg version="1.1" baseProfile="basic" id="Слой_1"
	 xmlns="http://www.w3.org/2000/svg" xmlns:xlink="http://www.w3.org/1999/xlink" x="0px" y="0px" width="20px" height="16px"
	 viewBox="0 0 20 16" xml:space="preserve">
<style type="text/css">
	.st0{fill-rule:evenodd;clip-rule:evenodd;fill:#C8C8C8;}
</style>
<path id="fa-check" class="st0" d="M20,3.1c0-0.3-0.1-0.7-0.4-0.9l-1.8-1.8c-0.5-0.5-1.2-0.5-1.7-0.1c0,0-7.8,8.2-7.8,8.2
	C8,8.9,7.3,8.9,7,8.5L3.9,5.3C3.4,4.8,2.7,4.7,2.2,5.2c0,0-1.8,1.9-1.8,1.9c-0.5,0.5-0.5,1.3,0,1.8l6.4,6.7c0.5,0.5,1.2,0.5,1.7,0.1
	C8.5,15.7,19.6,4,19.6,4C19.9,3.8,20,3.5,20,3.1z"/>
</svg>
