<?xml version="1.0" encoding="utf-8"?>
<!-- Generator: Adobe Illustrator 25.0.0, SVG Export Plug-In . SVG Version: 6.00 Build 0)  -->
<svg version="1.1" baseProfile="basic" id="Слой_1"
	 xmlns="http://www.w3.org/2000/svg" xmlns:xlink="http://www.w3.org/1999/xlink" x="0px" y="0px" width="20px" height="20px"
	 viewBox="0 0 20 20" xml:space="preserve">
<style type="text/css">
	.st0{fill-rule:evenodd;clip-rule:evenodd;fill:#C8C8C8;}
</style>
<path id="fa-dribbble" class="st0" d="M13.3,17.8c-2.9,1.3-6.4,0.8-8.8-1.3c0,0,0.1,0.1,0.2,0.1c1.6-3.7,6.7-5.6,6.7-5.6s0,0,0.1,0
	C12.3,13.2,12.9,15.4,13.3,17.8z M10.9,9.5c-0.1,0-0.2,0.1-0.3,0.1c-2.9,1.1-5.4,3.2-6.9,5.9l0,0c-1.4-1.7-2.2-3.8-2.2-6
	c0-0.1,0-0.2,0-0.3c3,0,5.9-0.4,8.8-1.3C10.5,8.5,10.7,9,10.9,9.5z M9.5,6.6C7,7.3,4.3,7.6,1.7,7.7c0.5-2.7,2.3-5,4.7-6.2
	C7.5,3.1,8.6,4.8,9.5,6.6L9.5,6.6z M18.4,10.9c-0.4,2.4-1.7,4.6-3.7,6c-0.4-2.2-0.9-4.3-1.7-6.4C14.9,10.3,16.7,10.4,18.4,10.9
	L18.4,10.9z M8,0.8C8,0.8,7.9,0.8,8,0.8C7.9,0.8,8,0.8,8,0.8z M15.6,2.8C14.5,4.3,13,5.4,11.2,6c-0.9-1.8-2-3.6-3.2-5.2
	C10.7,0.1,13.6,0.9,15.6,2.8L15.6,2.8z M18.5,9.4c-2-0.4-4-0.5-5.9-0.3c-0.1-0.1-0.1-0.3-0.2-0.5c-0.2-0.4-0.4-0.9-0.6-1.3
	c1.9-0.7,3.5-2,4.8-3.5C17.8,5.4,18.5,7.4,18.5,9.4L18.5,9.4z M20,9.5C19.7,4,15-0.3,9.5,0C4,0.3-0.3,5,0,10.5
	C0.3,15.8,4.7,20,10,20C15.7,19.9,20.1,15.2,20,9.5z"/>
</svg>
