<?xml version="1.0" encoding="utf-8"?>
<!-- Generator: Adobe Illustrator 25.0.0, SVG Export Plug-In . SVG Version: 6.00 Build 0)  -->
<svg version="1.1" baseProfile="basic" id="Слой_1"
	 xmlns="http://www.w3.org/2000/svg" xmlns:xlink="http://www.w3.org/1999/xlink" x="0px" y="0px" width="23px" height="20px"
	 viewBox="0 0 23 20" xml:space="preserve">
<style type="text/css">
	.st0{fill-rule:evenodd;clip-rule:evenodd;fill:#C8C8C8;}
</style>
<path id="fa-flickr" class="st0" d="M18.7,0H4.3C2.1-0.1,0.2,1.5,0,3.8v12.5c0.2,2.2,2.1,3.9,4.3,3.8h14.4c2.2,0.1,4.1-1.5,4.3-3.8
	V3.8C22.8,1.5,20.9-0.1,18.7,0z M10.5,10c0.2,1.8-1,3.4-2.7,3.6c-1.8,0.2-3.4-1-3.6-2.7c-0.2-1.8,1-3.4,2.7-3.6c0.1,0,0.3,0,0.4,0
	C8.9,7.1,10.3,8.4,10.5,10z M18.9,10c0.2,1.8-1,3.4-2.7,3.6c-1.8,0.2-3.4-1-3.6-2.7c-0.2-1.8,1-3.4,2.7-3.6c0.1,0,0.3,0,0.4,0
	C17.4,7.1,18.8,8.4,18.9,10L18.9,10z"/>
</svg>
