<?xml version="1.0" encoding="utf-8"?>
<!-- Generator: Adobe Illustrator 25.0.0, SVG Export Plug-In . SVG Version: 6.00 Build 0)  -->
<svg version="1.1" baseProfile="basic" id="Слой_1"
	 xmlns="http://www.w3.org/2000/svg" xmlns:xlink="http://www.w3.org/1999/xlink" x="0px" y="0px" width="25px" height="29px"
	 viewBox="0 0 25 29" xml:space="preserve">
<style type="text/css">
	.st0{fill-rule:evenodd;clip-rule:evenodd;fill:#C8C8C8;}
</style>
<path id="fa-android" class="st0" d="M8.8,6.2c-0.4,0-0.7-0.3-0.7-0.7c0-0.4,0.3-0.7,0.7-0.7c0.4,0,0.7,0.3,0.7,0.7
	C9.4,5.9,9.1,6.2,8.8,6.2C8.8,6.2,8.8,6.2,8.8,6.2z M16.2,6.2c-0.4,0-0.7-0.3-0.7-0.7c0-0.4,0.3-0.7,0.7-0.7c0.4,0,0.7,0.3,0.7,0.7
	c0,0,0,0,0,0C16.9,5.9,16.6,6.2,16.2,6.2z M1.8,9.4c-1,0-1.8,0.8-1.8,1.8c0,0,0,0,0,0v7.5c0,1,0.9,1.8,1.9,1.8c1,0,1.8-0.8,1.8-1.8
	v-7.5C3.6,10.2,2.8,9.4,1.8,9.4z M20.6,9.7H4.4v11.6c0,1.1,0.9,1.9,1.9,1.9c0,0,0,0,0,0h1.3l0,4c0,1,0.9,1.8,1.9,1.8
	c1,0,1.8-0.8,1.8-1.8v-4h2.4v4c0,1,0.9,1.8,1.9,1.8c1,0,1.8-0.8,1.8-1.8v-4h1.3c1.1,0,1.9-0.8,1.9-1.9c0,0,0,0,0,0L20.6,9.7
	L20.6,9.7z M16.5,2.7l1.3-2.3c0.1-0.1,0-0.3-0.1-0.3c0,0,0,0,0,0c-0.1-0.1-0.3,0-0.4,0.1l-1.3,2.3c-2.3-1-4.9-1-7.1,0L7.7,0.1
	C7.6,0,7.4,0,7.3,0C7.2,0.1,7.1,0.2,7.2,0.4c0,0,0,0,0,0l1.3,2.3C6,3.8,4.3,6.3,4.3,9.1h16.4C20.7,6.3,19,3.8,16.5,2.7z M25,11.2
	c0-1-0.9-1.8-1.9-1.8c-1,0-1.8,0.8-1.8,1.8v7.5c0,1,0.9,1.8,1.9,1.8c1,0,1.8-0.8,1.8-1.8V11.2z"/>
</svg>
