<?xml version="1.0" encoding="utf-8"?>
<!-- Generator: Adobe Illustrator 25.0.0, SVG Export Plug-In . SVG Version: 6.00 Build 0)  -->
<svg version="1.1" baseProfile="basic" id="Слой_1"
	 xmlns="http://www.w3.org/2000/svg" xmlns:xlink="http://www.w3.org/1999/xlink" x="0px" y="0px" width="23px" height="20px"
	 viewBox="0 0 23 20" xml:space="preserve">
<style type="text/css">
	.st0{fill-rule:evenodd;clip-rule:evenodd;fill:#C8C8C8;}
</style>
<path id="fa-twitter" class="st0" d="M23,2.4c-0.9,0.4-1.8,0.7-2.7,0.8c1-0.6,1.7-1.6,2.1-2.8c-0.9,0.6-1.9,1-3,1.2
	c-0.9-1-2.1-1.6-3.4-1.6c-2.7,0.1-4.8,2.4-4.7,5c0,0.4,0,0.8,0.1,1.2C7.5,6,3.9,4,1.6,0.9C1.2,1.7,1,2.6,1,3.5
	c0,1.7,0.8,3.2,2.1,4.2C2.3,7.6,1.6,7.4,0.9,7v0.1c-0.1,2.3,1.5,4.4,3.8,5c-0.4,0.1-0.8,0.2-1.2,0.2c-0.3,0-0.6,0-0.9-0.1
	c0.6,2,2.3,3.4,4.4,3.5C5,17.3,2.5,18,0,17.7C2.1,19.2,4.6,20,7.2,20c8.7,0,13.4-7.7,13.4-14.4c0-0.2,0-0.4,0-0.7
	C21.6,4.3,22.4,3.4,23,2.4z"/>
</svg>
