<?xml version="1.0" encoding="utf-8"?>
<!-- Generator: Adobe Illustrator 25.0.0, SVG Export Plug-In . SVG Version: 6.00 Build 0)  -->
<svg version="1.1" baseProfile="basic" id="Слой_1"
	 xmlns="http://www.w3.org/2000/svg" xmlns:xlink="http://www.w3.org/1999/xlink" x="0px" y="0px" width="25px" height="29px"
	 viewBox="0 0 25 29" xml:space="preserve">
<style type="text/css">
	.st0{fill-rule:evenodd;clip-rule:evenodd;fill:#C8C8C8;}
</style>
<path id="fa-apple" class="st0" d="M25,21.2c-1.2-0.4-2.2-1.2-2.8-2.2c-0.8-1.1-1.2-2.5-1.2-3.9c0-1.3,0.4-2.6,1.2-3.6
	c0.6-0.8,1.3-1.5,2-2.1c-0.5-0.7-1.2-1.3-1.9-1.7c-1.1-0.8-2.5-1.2-3.8-1.1c-1.1,0-2.1,0.2-3.1,0.6c-0.8,0.3-1.7,0.5-2.6,0.6
	c-0.8-0.1-1.7-0.3-2.5-0.5c-1-0.3-2.1-0.5-3.2-0.5c-2,0-3.9,0.9-5.1,2.5c-1.4,1.9-2.1,4.2-2,6.5c0.1,3.1,1,6.1,2.6,8.8
	C4.4,27.5,6.2,29,8,29c0.8,0,1.6-0.2,2.4-0.6c0.8-0.3,1.7-0.5,2.5-0.6c0.9,0,1.8,0.2,2.7,0.6c0.8,0.3,1.7,0.5,2.5,0.6
	c1.5,0,3.1-1.1,4.6-3.4C23.7,24.2,24.5,22.7,25,21.2z M18.3,0.7c0-0.1,0-0.2,0-0.4c0-0.1-0.1-0.2-0.1-0.4c-1.8,0.3-3.4,1.2-4.5,2.6
	c-0.9,1.3-1.4,2.9-1.4,4.5c0.6,0,1.3-0.1,1.9-0.3c0.7-0.3,1.4-0.7,1.9-1.3c0.7-0.7,1.3-1.5,1.7-2.4C18.1,2.3,18.2,1.5,18.3,0.7
	L18.3,0.7z"/>
</svg>
